PathFileType	4	(X/Y/Z)	38_2_64_p1_0-467.trc
DataRate	CameraRate	NumFrames	NumMarkers	Units	OrigDataRate	OrigDataStartFrame	OrigNumFrames
60.0	60.0	5	27	m	60.0	117	468
Frame#	Time	RHip			RKnee			RAnkle			RBigToe			RSmallToe			RHeel			LHip			LKnee			LAnkle			LBigToe			LSmallToe			LHeel			Neck			Head			Nose			RShoulder			RElbow			RWrist			RThumb			RIndex			RPinky			LShoulder			LElbow			LWrist			LThumb			LIndex			LPinky			
		X1	Y1	Z1	X2	Y2	Z2	X3	Y3	Z3	X4	Y4	Z4	X5	Y5	Z5	X6	Y6	Z6	X7	Y7	Z7	X8	Y8	Z8	X9	Y9	Z9	X10	Y10	Z10	X11	Y11	Z11	X12	Y12	Z12	X13	Y13	Z13	X14	Y14	Z14	X15	Y15	Z15	X16	Y16	Z16	X17	Y17	Z17	X18	Y18	Z18	X19	Y19	Z19	X20	Y20	Z20	X21	Y21	Z21	X22	Y22	Z22	X23	Y23	Z23	X24	Y24	Z24	X25	Y25	Z25	X26	Y26	Z26	X27	Y27	Z27	
117	1.95	0.4068694904783891	0.7688218292447999	0.5474135616799376	0.39173450332639603	0.9039511735310027	0.9476392322341615	0.37901867493887	1.0525298653087112	1.3590410255136256	0.33686478178329005	0.8654907077471956	1.4220326728275217	0.4084497545618767	0.8722962543641424	1.4208363515348599	0.35789821288049933	1.1624269156285814	1.4071910011330104	0.22072683016028982	0.7547061885538284	0.5365742153735834	0.1957533518085797	0.9597924504952975	0.9442520821634623	0.17839073113625406	1.0652740421752718	1.3289981120958925	0.15832317835080414	0.8551412530572289	1.3989848042763084	0.10815340115984988	0.9357278668712256	1.4072212580260524	0.20293520705527904	1.139772286866929	1.3928171051509972	0.3432380045220905	0.49154888336677943	0.06905799425866689	0.3520341867862431	0.3381345243211057	-0.1413185966822918	0.3604609888823946	0.34352705629145064	0.0019930571139739565	0.4990299511936076	0.5446597196182331	0.10964201864238432	0.606359285206583	0.4379126294522374	0.32459049636119947	0.629261258703613	0.20589520503431571	0.4259587157029357	0.5893877847321332	0.04825782174845224	0.42980090393873954	0.5778926785638593	0.05481481486198985	0.44587970589494	0.5672016178739602	0.12127236984140569	0.4889575948615104	0.1953802668957967	0.5636534870847245	0.11338863969662111	0.08562206365245174	0.4545234881542478	0.35331965712106017	0.24755061659270072	0.2920494112441458	0.33185197001093164	0.3366347193752667	0.24155117517398209	0.2848026743990089	0.3444720797259886	0.23533602879356755	0.3033134404416761	0.335635044804476	0.27708020024761637	0.3595546281736537
118	1.9666666666666666	0.4025508761517668	0.7678970091263382	0.5509551198168557	0.39233169578395677	0.9024917590669754	0.9434653025678248	0.37900649256428526	1.0525080162878235	1.3589878786770928	0.33676363530522285	0.865527153389458	1.4221357533017074	0.40843201269505913	0.8723644566225027	1.420837972814943	0.3578507768836689	1.162386347258376	1.4071488248235489	0.22487326999876253	0.7652471155360204	0.5331136415574091	0.19863830362053314	0.9429350164429902	0.9417574078617572	0.17844845910784302	1.0657101581780732	1.329226770294275	0.15842296694794405	0.8541140335098825	1.4033395938007642	0.10807897554067378	0.9355929352998977	1.4071755579185048	0.20283940058323993	1.1397824687273177	1.392818892714285	0.3431890970343588	0.4912337887855724	0.0652504981112458	0.35206954913739513	0.33829462865145926	-0.14147987970552822	0.3604659208184867	0.3435665395111183	0.0019529193998121884	0.4990722207940827	0.5449206188629446	0.10966625331246965	0.60973327819796	0.4510292389892985	0.32702155606556016	0.6186505494843016	0.20638091880481202	0.4258253313785594	0.58316843703682	0.05992637046320415	0.41962083231378744	0.5652465291254731	0.046976773597945956	0.44046475927894113	0.5626399207185503	0.10812675212102757	0.48129504103115084	0.19531768400950913	0.5636485548009122	0.11339259226031013	0.08489982435128188	0.45251779383515794	0.3496196323966008	0.2455475977093191	0.3024516469497709	0.3278020614060936	0.3359939613187387	0.2397081925206781	0.2820032882869336	0.3441815337038295	0.2342964857844219	0.30037896028117256	0.3365196713437068	0.26243403133676935	0.3561842106972232
119	1.9833333333333334	0.40102980888999795	0.7628767340446942	0.5428615984842514	0.3923873583662973	0.9016836284013793	0.9473369489682356	0.3840754842321424	1.0539009130762524	1.359704032930808	0.336927349074095	0.865967022176556	1.4223965635952553	0.40721296942342683	0.8907301646983181	1.4264922095572128	0.3578658147297409	1.1624057485206258	1.4072543796859052	0.21891455622841832	0.747214206682511	0.5296668788010941	0.1988041441459728	0.9425270366037641	0.9416650563489907	0.17840269231070427	1.0661891067606146	1.329587665493011	0.15836014166530546	0.8540323492512898	1.403295909119121	0.10807352531438034	0.9357104297083684	1.4072806899483075	0.2026340782423922	1.1401090919562662	1.3931557071028	0.34310316097054233	0.4911234680049642	0.06532332308791099	0.3521034835111848	0.3383004267920137	-0.14150879079175033	0.3605968123346558	0.3433424396245236	-0.0012434328976203622	0.49890261987121615	0.5446820332045247	0.10958645827198459	0.6194842288940635	0.45969553941290153	0.33057841491682427	0.6072653125075227	0.2073304461258872	0.41932719181969375	0.5645385854207666	0.0859312962056963	0.4179423273365046	0.5531557074320953	0.08039852897496841	0.4371457640876656	0.5570628870027169	0.1245722866679396	0.48542791854754325	0.1911104480372864	0.5520129545946745	0.11474738176599082	0.08076580022253424	0.45105221511784044	0.34924683172483395	0.24527674553911596	0.30045598225070785	0.3238017805953265	0.33675037016389237	0.2420192974511956	0.28464110543096227	0.34405874782995427	0.23480442648650351	0.30039995388931284	0.33525653038917613	0.27318027699751735	0.3531084206071521
120	2.0	0.4027416975976969	0.7675420326496422	0.5551466915102041	0.3922315123255914	0.9015001746520677	0.9472850097151612	0.3790358404530617	1.05237965263568	1.3589421865929392	0.33710078433392043	0.8667589098982063	1.4227106126372349	0.4077271402100367	0.8921183184014065	1.426779785525208	0.3578648032773092	1.1623987431338958	1.407158323782272	0.22381781038464538	0.7635018737461922	0.5378400798504271	0.198625106951507	0.9416205153018768	0.9417028508560319	0.16947534662240094	1.0621422579458364	1.3323434264670093	0.15852420936171863	0.8541852574802393	1.4032400511838357	0.10848601108088665	0.9353779810619685	1.4071090420206012	0.2006629801736352	1.1378314825924265	1.3894197098508982	0.34292782414314266	0.49057041755222736	0.06506807975239168	0.35213450903786253	0.33816771543957347	-0.14164404403591646	0.3604821260130312	0.343770031006224	0.0020072614915551024	0.4989148830928943	0.5448146653578869	0.10966712620797811	0.624437101824232	0.46320786380176565	0.34475471938027874	0.6003822753399525	0.23003563584060288	0.4191284705076434	0.5591986993214333	0.10229560494028371	0.4168214397196283	0.5483032668553868	0.09231704224382306	0.4330229951732104	0.5395828229993929	0.11691242799399174	0.4777777785862273	0.19279326002727437	0.5766065348682963	0.11173130964743622	0.08056557135129071	0.45115029929823647	0.34908249767174127	0.245565783127755	0.30064332516756015	0.3208476104544514	0.33852883647959436	0.26700140918734067	0.2832644718572164	0.34809426012803607	0.24331388134484339	0.29992895195907976	0.33951071488965073	0.2821233377509714	0.35274043053432186
121	2.0166666666666666	0.4018974906056218	0.7650311884703203	0.5511625404413077	0.3921417318733617	0.9014028850874408	0.9473296163635003	0.3789618893081804	1.0522558085784983	1.3591054700878222	0.3348314051366814	0.8844838974509538	1.4282260779218796	0.4023446891136139	0.8782743381955812	1.4225603634477444	0.3578493619085289	1.1624109795052462	1.4072939077548243	0.22387956032929246	0.7636832852943426	0.5378173498088744	0.19808499119441184	0.9430019681406439	0.950034795079283	0.17408608857861796	1.0643185955326244	1.3332921061240757	0.16271423555138254	0.8688749441201753	1.4080019464419722	0.11282165157268385	0.9499839133630373	1.4161784663804664	0.19778206855657623	1.1580794356317698	1.3948071364909682	0.343105947349402	0.4906650301297953	0.06491422466122551	0.35212399406909384	0.33820991391787447	-0.14156801936232596	0.3604812814826285	0.3437597330019923	0.0020100960615187756	0.4949706560267112	0.5445931105274004	0.10983220460386363	0.6253672674704336	0.4653927150261642	0.345940816159607	0.594773307386598	0.2688439860105824	0.418401176340531	0.5457018204304501	0.10943918273747867	0.4022062404786003	0.540563053465561	0.09924261718272412	0.4205885482534237	0.518355796758652	0.11008733402920859	0.4678407372102653	0.1953729075547466	0.5638449047284227	0.11308248902080965	0.06946399409215143	0.4509081975420408	0.34883486005080855	0.24330886542470856	0.3121579774035831	0.3202043710923468	0.33780519193752273	0.27411149014299796	0.28267732298542053	0.3483914226518028	0.24337421541566912	0.2998099375984044	0.33991001770252405	0.2820052135032313	0.3526980959562825
